<?xml version="1.0" encoding="UTF-8" standalone="no"?>
<svg
   xmlns:dc="http://purl.org/dc/elements/1.1/"
   xmlns:cc="http://creativecommons.org/ns#"
   xmlns:rdf="http://www.w3.org/1999/02/22-rdf-syntax-ns#"
   xmlns:svg="http://www.w3.org/2000/svg"
   xmlns="http://www.w3.org/2000/svg"
   xmlns:sodipodi="http://sodipodi.sourceforge.net/DTD/sodipodi-0.dtd"
   xmlns:inkscape="http://www.inkscape.org/namespaces/inkscape"
   version="1.1"
   x="0px"
   y="0px"
   width="700"
   height="400"
   viewBox="0, 0, 700, 400"
   id="svg2"
   inkscape:version="0.48.4 r"
   sodipodi:docname="lanes.svg"
   inkscape:export-filename="/Users/adrian/Documents/hpi/designing interactive systems/feetbeatz/lanes.png"
   inkscape:export-xdpi="90"
   inkscape:export-ydpi="90">
  <metadata
     id="metadata168">
    <rdf:RDF>
      <cc:Work
         rdf:about="">
        <dc:format>image/svg+xml</dc:format>
        <dc:type
           rdf:resource="http://purl.org/dc/dcmitype/StillImage" />
        <dc:title />
      </cc:Work>
    </rdf:RDF>
  </metadata>
  <sodipodi:namedview
     pagecolor="#ffffff"
     bordercolor="#666666"
     borderopacity="1"
     objecttolerance="10"
     gridtolerance="10"
     guidetolerance="10"
     inkscape:pageopacity="0"
     inkscape:pageshadow="2"
     inkscape:window-width="1280"
     inkscape:window-height="752"
     id="namedview166"
     showgrid="false"
     inkscape:zoom="0.98857141"
     inkscape:cx="368.69537"
     inkscape:cy="230.04904"
     inkscape:window-x="0"
     inkscape:window-y="0"
     inkscape:window-maximized="1"
     inkscape:current-layer="svg2" />
  <rect
     style="fill:#b3b3b3;fill-opacity:1;stroke:none"
     id="rect3043"
     width="800"
     height="600"
     x="0"
     y="-200" />
  <path
     style="fill:#e6ffff"
     inkscape:connector-curvature="0"
     d="m 50.5,50.5 600,0 0,300 -600,0 z"
     id="path10" />
  <path
     style="fill-opacity:0;stroke:#000000;stroke-width:1"
     inkscape:connector-curvature="0"
     d="m 50.5,50.5 600,0 0,300 -600,0 z"
     id="path12" />
  <path
     style="fill:#ffffff"
     inkscape:connector-curvature="0"
     d="m 100.5,50.5 19.393,0 0.607,300 -20,0 z"
     id="path16" />
  <path
     style="fill-opacity:0;stroke:#000000;stroke-width:1"
     inkscape:connector-curvature="0"
     d="m 100.5,50.5 19.393,0 0.607,300 -20,0 z"
     id="path18" />
  <path
     style="fill:#ffffff"
     inkscape:connector-curvature="0"
     d="m 250.5,50.5 19.393,0 0.607,300 -20,0 z"
     id="path22" />
  <path
     style="fill-opacity:0;stroke:#000000;stroke-width:1"
     inkscape:connector-curvature="0"
     d="m 250.5,50.5 19.393,0 0.607,300 -20,0 z"
     id="path24" />
  <path
     style="fill:#ffffff"
     inkscape:connector-curvature="0"
     d="m 400.5,50.5 19.393,0 0.607,300 -20,0 z"
     id="path28" />
  <path
     style="fill-opacity:0;stroke:#000000;stroke-width:1"
     inkscape:connector-curvature="0"
     d="m 400.5,50.5 19.393,0 0.607,300 -20,0 z"
     id="path30" />
  <path
     style="fill:#ffffff"
     inkscape:connector-curvature="0"
     d="m 550.5,50.5 23.271,0 0.729,300 -24,0 z"
     id="path34" />
  <path
     style="fill-opacity:0;stroke:#000000;stroke-width:1"
     inkscape:connector-curvature="0"
     d="m 550.5,50.5 23.271,0 0.729,300 -24,0 z"
     id="path36" />
  <path
     id="path38"
     d="m 109.615,50.5 c 6.838,3.107 -3.304,4.192 -3.688,5.609 -0.639,2.36 4.333,0.386 4.333,1.6 0,0.718 -3.247,0.203 -2.708,0.8 1.078,1.195 6.495,0.405 5.416,1.6 -0.445,0.493 -8.109,3.07 -4.333,4 1.189,0.292 3.981,0.14 4.875,0.8 1.356,1.001 -5.958,0.676 -5.958,1.6 0,0.4 6.499,0.8 6.499,1.2 0,2.414 -11.211,-1.36 -9.749,0.8 0.94,1.388 10.189,1.274 9.208,1.999 -11.229,8.293 -1.625,-6.053 -1.625,2.4 0,0.534 -2.852,-0.168 -2.167,0 1.247,0.307 4.721,0.114 3.792,0.8 -0.296,0.219 -8.666,0.634 -8.666,0.8 0,1.841 6.73,-1.029 9.207,0.8 1.828,1.35 -8.4,-0.611 -7.582,1.2 0.582,1.29 6.718,-0.161 5.416,0.8 -1.345,0.993 -6.998,1.323 -3.792,2 1.228,0.259 4.694,-0.267 3.792,0.4 -1.283,0.947 -6.699,-0.547 -5.416,0.4 1.314,0.971 3.015,2 4.874,2 0.722,0 2.889,0 2.167,0 -3.473,0 -13.397,0.053 -10.291,1.2 4.275,1.578 8.497,-1.383 4.874,0.4 -1.618,0.797 7.041,3.707 7.041,3.2 0,-1.392 -6.259,-0.045 -5.416,1.2 0.257,0.379 7.577,0.115 4.333,0.8 -4.232,0.893 -6.07,1.599 -0.541,1.599 3.276,0 -9.539,1.756 -8.666,2.4 0.825,0.61 8.821,1.37 8.666,1.6 -0.888,1.311 -8.057,1.7 -6.5,4 0.546,0.807 7.587,0.266 3.792,1.2 -9.682,2.383 -0.542,0.656 -0.542,3.2 0,8.381 -7.587,-5.209 -3.25,4.4 4.143,9.178 3.792,-4.706 3.792,4.399 0,1.491 -5.958,-0.69 -5.958,0.8 0,2.04 10.594,0.288 8.124,1.2 -19.972,7.375 4.152,-1.466 -2.708,3.6 -1.679,1.24 -9.017,-0.173 -7.041,0.8 2.741,1.35 11.222,-0.976 9.749,1.2 -1.329,1.963 -5.958,-0.339 -5.958,2.4 0,1.34 7.231,0.4 5.416,0.4 -2.174,0 -8.308,-0.491 -6.499,0.4 1.679,0.827 5.958,2.291 5.958,0.8 0,-0.213 -7.815,0.271 -5.416,1.6 1.899,1.052 9.016,-0.173 7.041,0.8 -1.707,0.84 -7.443,-0.018 -3.792,1.6 0.639,0.283 2.833,0.154 2.167,0.4 -1.658,0.612 -6.405,-0.07 -7.583,0.8 -0.296,0.218 5.099,0.8 5.416,0.8 1.264,0 -4.921,-0.418 -3.791,0 1.841,0.68 7.413,0.125 5.958,1.2 -0.788,0.581 -7.583,0.305 -7.583,1.2 0,0.639 16.004,2.09 15.165,2.399 -6.017,2.222 -17.16,0.464 -15.165,1.2 20.195,7.457 -3.052,-6.507 1.083,-0.4 0.542,0.8 3.25,0.306 3.25,1.2 0,1.857 -7.651,0.199 -7.041,2 0.722,2.134 12.414,2.032 11.916,2.4 -0.898,0.663 -9.749,0.255 -9.749,1.2 0,1.622 8.695,0.8 6.499,0.8 -7.604,0 1.73,1.883 1.625,2 -0.836,0.926 -5.723,0.853 -5.958,1.2 -0.612,0.904 5.958,1.241 5.958,1.2 0,-0.411 -5.48,0.271 -5.958,0.8 -0.35,0.387 13.854,0.4 12.457,0.4 -5.248,0 -20.685,-0.426 -15.707,0.8 2.426,0.597 5.6,-0.373 8.125,0 4.419,0.652 -3.799,1.605 -4.333,2 -0.818,0.603 2.708,2.453 2.708,1.6 0,-0.667 -3.611,0 -2.708,0 1.624,0 6.499,0 4.874,0 -5.241,0 -8.074,3.055 -7.582,3.599 1.284,1.423 14.883,0 11.373,0 -3.61,0 -13.385,-1.885 -10.832,0 2.848,2.103 15.177,0.598 11.916,1.2 -4.076,0.753 -12.893,2.079 -11.916,2.8 2.515,1.857 15.232,0.176 9.208,2.4 -1.267,0.468 -10.833,-0.212 -10.833,1.2 0,1.168 10.964,2.155 12.457,2.4 5.33,0.875 -12.044,0.4 -7.041,0.4 0.321,0 9.75,-0.275 9.75,0.8 0,3.333 -16.732,-2.357 -13.541,0 1.482,1.094 6.457,0.736 7.583,2.4 0.888,1.312 -7.944,0 -5.958,0 2.528,0 7.583,1.866 7.583,0 0,-1.733 -4.694,0 -7.041,0 -1.625,0 -4.875,-1.2 -4.875,0 0,0.033 10.882,0.836 11.916,1.6 2.936,2.168 -16.486,-0.744 -12.458,0 11.451,2.114 9.227,-0.393 18.957,3.2 3.879,1.432 -16.607,-1.377 -12.999,0.4 6.598,3.248 -4.115,1.76 -2.708,2.799 0.606,0.447 11.438,0.965 5.416,1.6 -0.962,0.102 -3.247,0.203 -2.708,0.8 1.022,1.132 5.138,-0.41 5.958,0.8 0.731,1.08 -5.606,-0.68 -4.875,0.4 0.22,0.325 5.447,1.555 5.417,1.6 -2.594,3.831 -9.969,1.156 -8.125,3.2 0.658,0.728 6.793,2.983 5.417,4 -1.156,0.854 -6.031,-0.454 -4.875,0.4 1.063,0.785 4.851,-0.051 5.416,1.2 0.801,1.775 -7.582,-1.472 -7.582,0.4 0,1.909 8.868,1.05 7.041,2.4 -9.628,7.11 -0.542,-9.369 -0.542,1.6 0,0.533 -2.812,-0.239 -2.167,0 0.735,0.271 7.718,1.966 7.583,1.999 -3.597,0.886 -15.165,0 -11.374,0 0.463,0 10.832,-0.362 10.832,0.4 0,1.067 -2.888,0 -4.332,0 -1.625,0 -4.875,1.2 -4.875,0 0,-1.605 8.444,-0.318 6.499,0.4 -1.937,0.716 -8.437,-0.715 -6.499,0 2.82,1.042 12.266,1.036 9.207,1.6 -2.913,0.538 -10.877,1.2 -9.207,1.2 3.83,0 14.799,-0.065 11.374,1.2 -0.492,0.182 -9.749,-0.118 -9.749,0 0,1.867 10.11,0 7.582,0 -1.263,0 -2.78,-0.56 -3.791,0 -2.907,1.61 2.708,1.08 2.708,2 0,0.97 -5.268,1.527 -4.874,2.4 0.51,1.131 5.777,1.067 4.333,1.6 -0.625,0.231 -7.041,-0.698 -7.041,-1.2 0,-0.677 7.673,3 7.582,3.2 -0.63,1.397 -5.958,-1.073 -5.958,0.4 0,0.417 5.613,2.509 5.417,2.8 -3.213,4.745 -4.463,-2.896 1.624,1.6 2.294,1.694 -11.695,0.643 -9.749,2.799 1.046,1.159 7.205,0.76 5.417,1.2 -2.592,0.638 -9.64,-0.878 -8.125,0.8 3.466,3.84 15.071,2.4 0,2.4 -3.074,0 6.133,0.4 9.208,0.4 3.992,0 -3.34,-0.3 -4.333,0.8 -1.206,1.336 8.238,-0.563 6.499,0.4 -0.681,0.378 -9.749,1.488 -9.749,2.4 0,0.369 8.624,1.087 7.583,1.6 -0.29,0.142 -8.472,1.106 -3.792,1.6 0.431,0.045 6.5,-0.036 6.5,0 0,0.556 -8.124,0.892 -8.124,1.6 0,3.008 14.795,-0.127 11.915,2 -1.302,0.961 -3.611,0.533 -5.416,0.8 -8.578,-0.134 3.791,1.849 3.791,1.2 0,-1.467 -5.957,-1.467 -5.957,0 0,0.432 2.954,0.527 2.708,0.8 -1.489,1.649 -9.481,0.598 -7.583,2 3.101,2.289 12.135,2.718 10.832,3.199 -2.542,0.939 -17.665,0.511 -4.874,2.4 0.902,0.134 3.12,-0.208 2.708,0.4 -0.229,0.339 -9.196,2.017 -8.666,2.8 1.419,2.096 5.819,1.411 8.124,1.6 0.915,0.075 2.708,1.08 2.708,0.4 0,-2.133 -4.457,-1.108 -6.499,0.4 -1.333,0.984 1.5,0.283 3.25,0.8"
     inkscape:connector-curvature="0"
     style="fill-opacity:0;stroke:#000000;stroke-width:1;stroke-linecap:round" />
  <path
     id="path40"
     d="m 258.491,51.278 c -0.028,-0.153 4.71,0.08 4.71,-0.005 0,-1.965 -4.653,0.273 -6.169,1.663 -2.354,2.157 3.746,1.781 2.903,3.326 -0.096,0.177 -4.945,0.58 -4.717,0.997 1.297,2.379 3.042,-0.204 5.08,1.663 1.565,1.435 -3.443,0.836 -2.54,1.663 1.225,1.123 5.942,0.874 4.717,1.996 -1.299,1.191 -6.165,0.327 -6.895,1.663 -0.924,1.694 7.846,1.684 5.807,1.996 -0.356,0.054 -8.927,0.399 -6.169,1.663 8.811,4.038 -0.276,-0.981 2.903,2.66 0.595,0.683 2.478,0.884 2.903,1.663 0.703,1.29 -5.83,-1.019 -4.718,0 1.494,1.37 7.919,2.329 5.807,2.329 -2.299,0 -8.521,-1.49 -6.895,0 1.959,1.795 6.559,0.204 5.806,0.665 -1.261,0.77 -6.349,-0.349 -1.452,0.998 0.291,0.08 7.806,1.491 7.258,2.328 -1.226,1.872 -4.149,2.661 -6.532,2.661 -2.181,0 -8.277,-0.867 -6.532,0.332 2.331,1.602 11.623,0.665 8.709,0.665 -1.033,0 -7.585,-0.697 -8.346,0 -1.837,1.684 8.731,1.643 6.895,3.326 -1.115,1.023 -5.833,-0.689 -4.718,0.333 1.411,1.293 7.591,0.513 5.807,1.33 -2.415,1.107 -5.68,2.445 -5.444,2.661 1.248,1.144 9.078,0 8.347,0 -0.224,0 -10.121,0.056 -9.436,0.998 0.901,1.238 5.93,1.635 4.355,1.996 -1.312,0.3 -5.304,0.364 -3.992,0.665 4.764,1.091 4.466,0.332 0,0.332 -1.726,0 9.436,2.021 9.436,0.998 0,-1.33 -2.904,0 -4.355,0 -1.452,0 -5.004,-1.19 -4.355,0 0.466,0.853 3.276,0.989 2.54,1.663 -0.037,0.035 -4.806,0.584 -3.991,1.331 0.652,0.598 6.895,1.184 6.895,1.33 0,0.558 -10.876,5.322 -10.161,5.322 1.454,0 17.688,-4.156 11.975,-0.666 -0.704,0.431 -2.162,-0.694 -2.54,0 -0.843,1.545 5.373,2.085 -2.178,2.661 -1.451,0.111 -5.707,-0.163 -4.354,0.333 4.531,1.661 10.737,-0.724 9.798,0.998 -0.508,0.931 -2.585,-0.084 -3.266,0.332 -1.681,1.027 1.586,1.644 1.088,2.328 -0.541,0.744 -2.903,-0.561 -2.903,0.333 0,0.684 1.855,0.74 1.452,1.663 -0.458,1.05 -3.629,-0.465 -3.629,0.665 0,1.736 6.774,1.552 5.08,2.328 -0.293,0.135 -9.694,2.227 -9.435,2.329 1.06,0.416 7.867,0.546 7.258,1.663 -0.658,1.206 -5.798,0.4 -4.355,0.665 1.615,0.296 6.369,0.059 5.444,1.33 -0.574,0.788 -2.903,0.051 -2.903,0.998 0,1.965 7.508,0.129 6.169,1.663 -2.154,2.467 -6.403,2.661 -6.169,2.661 0.855,0 3.145,-0.222 2.54,0.332 -0.941,0.863 -5.323,0 -3.992,0 2.071,0 7.633,-0.676 6.169,0.666 -0.087,0.08 -6.334,0.13 -6.169,0.332 1.538,1.88 8.68,0.374 7.258,2.328 -1.713,2.356 -10.935,0.244 -10.524,0.998 0.91,1.668 10.233,1.331 9.798,1.331 -2.566,0 -9.435,-0.666 -7.621,0.997 0.388,0.355 5.654,1.567 5.444,1.663 -3.361,1.54 -8.718,0.331 -8.71,0.333 8.098,1.855 17.204,0.62 15.968,0.998 -4.981,1.522 -11.97,-0.327 -11.613,0 1.796,1.646 6.798,-0.133 8.347,1.995 1.015,1.397 -7.984,0.848 -7.984,2.329 0,0.648 5.135,0.628 5.806,0.997 2.139,1.176 -9.488,0.641 -7.258,1.663 13.413,6.147 6.224,-3.043 0,2.661 -1.132,1.038 5.176,0.088 6.532,1.331 1.611,1.475 -11.008,5.542 -10.523,5.986 2.383,2.185 11.713,0.121 10.523,0.666 -11.814,-0.431 2.791,0.665 -1.451,0.665 -2.672,0 -10.576,0.071 -7.984,0.665 4.791,1.098 10.297,1.206 10.161,1.33 -0.18,0.166 -4.717,-0.087 -4.717,0.333 0,0.321 7.148,0.685 3.629,1.33 -2.267,0.416 -8.962,-0.282 -6.895,0.666 0.896,0.411 3.27,0.332 4.354,0.332 8.975,0 -1.088,-0.176 -1.088,0.333 0,2.439 10.565,-0.592 7.983,0 -6.712,1.538 -11.271,0.332 -11.249,0.332 3.266,0 10.438,-2.935 9.798,0 -0.066,0.301 -5.059,3.307 -5.807,3.992 -2.126,1.949 1.276,4.216 -0.725,2.993 -1.324,-0.809 6.308,-0.665 4.717,-0.665 -2.316,0 -8.718,-0.568 -3.266,-1.996 2.711,-0.71 -0.705,-1.193 -1.451,-1.33 7.12,0.836 -9.59,-2.434 3.991,0.332 8.735,1.779 -5.443,2.742 -5.443,3.326 0,1.335 5.783,0.071 4.355,0.333 -0.831,0.152 -1.694,0 -2.54,0 -0.429,0 -8.347,0.618 -8.347,0.665 0,3.246 12.108,-1.572 10.524,1.331 -0.815,1.494 -5.847,2.956 -5.806,2.993 1.68,1.54 7.646,-0.403 6.895,1.663 -0.211,0.579 -5.545,0.785 -2.904,1.996 1.104,0.505 3.239,-0.408 3.629,0.665 0.137,0.375 -9.449,2.355 -9.798,2.993 -1.808,3.315 6.048,-1.442 9.073,1.331 2.334,2.139 -5.081,1.233 -5.081,1.995 0,0.676 4.573,0.266 5.081,0.333 4.793,0.627 -1.836,1.606 -1.452,2.661 0.243,0.667 3.629,0.886 3.629,0.997 0,0.899 -6.453,1.113 -6.895,2.329 -1.637,4.5 8.608,-2.426 4.718,2.328 -0.529,0.646 -7.258,2.99 -7.258,2.993 0,0.865 6.059,-0.072 6.169,0.333 0.251,0.919 -1.687,2.047 -2.177,2.328 -4.461,2.555 -3.561,2.328 1.088,2.328 1.577,0 -4.717,-1.113 -4.717,0.333 0,1.264 5.225,0.432 3.991,0.998 -0.418,0.191 -6.532,0.504 -6.532,0.665 0,0.304 13.709,1.405 11.25,3.658 -1.233,1.131 -4.067,-0.263 -5.443,0.998 -0.77,0.706 2.177,0 3.266,0 1.095,0 -4.362,0.333 -3.266,0.333 1.572,0 6.29,0 4.717,0 -1.775,0 -14.697,1.021 -7.258,1.995 11.459,1.501 0.726,-0.835 0.726,1.663 0,1.999 8.713,0.333 6.532,0.333 -0.202,0 -2.282,-0.14 -2.54,0.333 -0.722,1.323 5.613,-0.233 4.718,0.997 -1.024,1.408 -5.419,-0.046 -6.17,1.331 -0.087,0.161 6.518,0.336 2.904,1.33 -4.115,1.132 -7.426,0.767 -7.258,0.998 0.97,1.334 8.709,1.962 8.709,3.991 0,0.921 -4.561,0.855 -5.08,1.331 -1.713,1.569 9.424,-0.661 7.257,0.332 -4.139,1.897 -11.075,1.577 -8.709,2.661 1.96,0.898 6.532,2.673 6.532,0.665 0,-1.614 -6.656,0.609 -5.08,1.331 8.684,3.979 2.347,-0.799 0.725,3.658 -0.689,1.896 8.601,-0.299 6.532,0.333 -1.46,0.446 -2.177,1.995 -3.266,2.993 -1.613,1.479 -7.42,1.847 -5.806,3.326 3.04,2.786 9.41,0.264 10.161,2.328 0.676,1.86 -10.434,2.743 -9.072,3.992 0.031,0.028 5.598,0.049 5.443,0.332 -0.914,1.676 -7.263,-0.069 -2.903,2.328 2.582,1.42 -2.261,1.254 -1.451,1.996 0.73,0.67 3.744,0.447 2.903,0.998 -0.841,0.55 -2.173,0.328 -2.903,0.998 -0.922,0.844 4.931,1.33 3.628,1.33 -1.814,0 -7.257,0 -5.443,0 1.734,0 20.596,0 10.524,0 -2.964,0 -12.29,0 -3.992,0 1.452,0 -5.806,0 -4.355,0 0.847,0 1.694,0 2.541,0"
     inkscape:connector-curvature="0"
     style="fill-opacity:0;stroke:#000000;stroke-width:1;stroke-linecap:round" />
  <path
     id="path42"
     d="m 564.911,249.722 c 0.034,0.153 -5.652,-0.08 -5.652,0.005 0,1.965 5.584,-0.273 7.403,-1.663 2.825,-2.157 -4.496,-1.781 -3.484,-3.326 0.116,-0.177 5.934,-0.58 5.661,-0.997 -1.557,-2.379 -3.651,0.204 -6.097,-1.663 -1.878,-1.435 4.132,-0.836 3.049,-1.663 -1.47,-1.123 -7.131,-0.874 -5.662,-1.996 1.56,-1.191 7.4,-0.327 8.274,-1.663 1.11,-1.694 -9.414,-1.684 -6.967,-1.996 0.426,-0.054 10.712,-0.399 7.403,-1.663 -10.574,-4.038 0.33,0.981 -3.484,-2.66 -0.715,-0.683 -2.974,-0.884 -3.484,-1.663 -0.844,-1.29 6.996,1.019 5.661,0 -1.792,-1.37 -9.502,-2.329 -6.967,-2.329 2.758,0 10.224,1.49 8.274,0 -2.351,-1.795 -7.872,-0.204 -6.968,-0.665 1.514,-0.77 7.62,0.349 1.742,-0.998 -0.349,-0.08 -9.367,-1.491 -8.709,-2.328 1.471,-1.872 4.979,-2.661 7.838,-2.661 2.617,0 9.932,0.867 7.839,-0.332 -2.797,-1.602 -13.947,-0.665 -10.452,-0.665 1.24,0 9.103,0.697 10.016,0 2.204,-1.684 -10.477,-1.643 -8.274,-3.326 1.339,-1.023 7,0.689 5.661,-0.333 -1.692,-1.293 -9.108,-0.513 -6.967,-1.33 2.898,-1.107 6.815,-2.445 6.532,-2.661 -1.497,-1.144 -10.894,0 -10.016,0 0.268,0 12.145,-0.056 11.322,-0.998 -1.08,-1.238 -7.115,-1.635 -5.225,-1.996 1.574,-0.3 6.364,-0.364 4.79,-0.665 -5.716,-1.091 -5.359,-0.332 0,-0.332 2.072,0 -11.322,-2.021 -11.322,-0.998 0,1.33 3.483,0 5.225,0 1.742,0 6.005,1.19 5.226,0 -0.558,-0.853 -3.931,-0.989 -3.048,-1.663 0.045,-0.035 5.768,-0.584 4.79,-1.331 -0.783,-0.598 -8.274,-1.184 -8.274,-1.33 0,-0.558 13.05,-5.322 12.193,-5.322 -1.746,0 -21.226,4.156 -14.37,0.666 0.845,-0.431 2.593,0.694 3.048,0 1.011,-1.545 -6.448,-2.085 2.613,-2.661 1.742,-0.111 6.848,0.163 5.225,-0.333 -5.437,-1.661 -12.885,0.724 -11.757,-0.998 0.609,-0.931 3.102,0.084 3.919,-0.332 2.016,-1.027 -1.904,-1.644 -1.307,-2.328 0.65,-0.744 3.484,0.561 3.484,-0.333 0,-0.684 -2.225,-0.74 -1.742,-1.663 0.55,-1.05 4.355,0.465 4.355,-0.665 0,-1.736 -8.129,-1.552 -6.097,-2.328 0.352,-0.135 11.633,-2.227 11.323,-2.329 -1.272,-0.416 -9.441,-0.546 -8.71,-1.663 0.79,-1.206 6.958,-0.4 5.226,-0.665 -1.937,-0.296 -7.642,-0.059 -6.532,-1.33 0.688,-0.788 3.484,-0.051 3.484,-0.998 0,-1.965 -9.01,-0.129 -7.403,-1.663 2.584,-2.467 7.683,-2.661 7.403,-2.661 -1.027,0 -3.774,0.222 -3.049,-0.332 1.129,-0.863 6.387,0 4.791,0 -2.485,0 -9.16,0.676 -7.403,-0.666 0.105,-0.08 7.601,-0.13 7.403,-0.332 -1.846,-1.88 -10.416,-0.374 -8.71,-2.328 2.056,-2.356 13.122,-0.244 12.629,-0.998 -1.092,-1.668 -12.28,-1.331 -11.758,-1.331 3.079,0 11.322,0.666 9.145,-0.997 -0.465,-0.355 -6.784,-1.567 -6.532,-1.663 4.032,-1.54 10.462,-0.331 10.451,-0.333 -9.717,-1.855 -20.644,-0.62 -19.161,-0.998 5.977,-1.521 14.364,0.327 13.936,0 -2.156,-1.646 -8.158,0.133 -10.016,-1.995 -1.219,-1.397 9.58,-0.848 9.58,-2.329 0,-0.648 -6.162,-0.628 -6.967,-0.997 -2.566,-1.176 11.386,-0.641 8.709,-1.663 -16.096,-6.147 -7.469,3.043 0,-2.661 1.359,-1.038 -6.211,-0.088 -7.839,-1.331 -1.932,-1.475 13.21,-5.542 12.629,-5.986 -2.86,-2.185 -14.056,-0.121 -12.629,-0.666 14.178,0.431 -3.348,-0.665 1.742,-0.665 3.207,0 12.692,-0.071 9.581,-0.665 -5.749,-1.098 -12.357,-1.206 -12.193,-1.33 0.216,-0.166 5.661,0.087 5.661,-0.333 0,-0.321 -8.579,-0.685 -4.355,-1.33 2.719,-0.416 10.754,0.282 8.274,-0.666 -1.076,-0.411 -3.925,-0.332 -5.226,-0.332 -10.769,0 1.307,0.176 1.307,-0.333 0,-2.439 -12.679,0.592 -9.581,0 8.055,-1.538 13.526,-0.332 13.5,-0.332 -3.919,0 -12.526,2.935 -11.758,0 0.079,-0.301 6.071,-3.307 6.968,-3.992 2.551,-1.949 -1.531,-4.216 0.871,-2.993 1.588,0.809 -7.571,0.665 -5.661,0.665 2.779,0 10.461,0.568 3.919,1.996 -3.253,0.71 0.845,1.193 1.742,1.33 -8.545,-0.836 11.507,2.434 -4.791,-0.332 -10.481,-1.779 6.533,-2.742 6.533,-3.326 0,-1.335 -6.94,-0.071 -5.226,-0.333 0.996,-0.152 2.032,0 3.048,0 0.515,0 10.016,-0.618 10.016,-0.665 0,-3.246 -14.529,1.572 -12.629,-1.331 0.978,-1.494 7.016,-2.956 6.968,-2.993 -2.017,-1.54 -9.176,0.403 -8.274,-1.663 0.253,-0.579 6.653,-0.785 3.484,-1.996 -1.324,-0.505 -3.887,0.408 -4.355,-0.665 -0.164,-0.375 11.34,-2.355 11.758,-2.993 2.17,-3.315 -7.257,1.442 -10.887,-1.331 -2.801,-2.139 6.096,-1.233 6.096,-1.995 0,-0.676 -5.487,-0.266 -6.096,-0.333 -5.752,-0.627 2.202,-1.606 1.742,-2.661 -0.292,-0.667 -4.355,-0.886 -4.355,-0.997 0,-0.899 7.744,-1.113 8.274,-2.329 1.964,-4.5 -10.329,2.426 -5.661,-2.328 0.634,-0.646 8.709,-2.99 8.709,-2.993 0,-0.865 -7.27,0.072 -7.403,-0.333 -0.3,-0.919 2.025,-2.047 2.613,-2.328 5.353,-2.555 4.273,-2.328 -1.306,-2.328 -1.893,0 5.661,1.113 5.661,-0.333 0,-1.264 -6.271,-0.432 -4.79,-0.998 0.502,-0.191 7.838,-0.504 7.838,-0.665 0,-0.304 -16.45,-1.405 -13.499,-3.658 1.48,-1.131 4.88,0.263 6.532,-0.998 0.923,-0.706 -2.613,0 -3.92,0 -1.314,0 5.234,-0.333 3.92,-0.333 -1.887,0 -7.549,0 -5.662,0 2.13,0 17.637,-1.021 8.71,-1.995 -13.751,-1.501 -0.871,0.835 -0.871,-1.663 0,-1.999 -10.455,-0.333 -7.839,-0.333 0.244,0 2.739,0.14 3.049,-0.333 0.866,-1.323 -6.736,0.233 -5.661,-0.997 1.228,-1.408 6.501,0.046 7.403,-1.331 0.105,-0.161 -7.821,-0.336 -3.484,-1.33 4.937,-1.132 8.911,-0.767 8.709,-0.998 -1.164,-1.334 -10.451,-1.962 -10.451,-3.991 0,-0.921 5.474,-0.855 6.097,-1.331 2.055,-1.569 -11.31,0.661 -8.71,-0.332 4.967,-1.897 13.29,-1.577 10.451,-2.661 -2.351,-0.898 -7.838,-2.673 -7.838,-0.665 0,1.614 7.987,-0.609 6.097,-1.331 -10.421,-3.979 -2.817,0.799 -0.871,-3.658 0.827,-1.896 -10.321,0.299 -7.839,-0.333 1.753,-0.446 2.613,-1.995 3.919,-2.993 1.937,-1.479 8.905,-1.847 6.968,-3.326 -3.648,-2.786 -11.292,-0.264 -12.193,-2.328 -0.812,-1.86 12.521,-2.743 10.887,-3.992 -0.037,-0.028 -6.718,-0.049 -6.533,-0.332 1.098,-1.676 8.716,0.069 3.484,-2.328 -3.098,-1.42 2.714,-1.254 1.742,-1.996 -0.877,-0.67 -4.493,-0.447 -3.484,-0.998 1.01,-0.55 2.607,-0.328 3.484,-0.998 1.106,-0.844 -5.918,-1.33 -4.355,-1.33 2.178,0 8.71,0 6.532,0 -2.08,0 -24.715,0 -12.628,0 3.556,0 14.747,0 4.79,0 -1.742,0 6.968,0 5.226,0 -1.016,0 -2.033,0 -3.049,0"
     inkscape:connector-curvature="0"
     style="fill-opacity:0;stroke:#000000;stroke-width:1;stroke-linecap:round" />
  <path
     id="path44"
     d="m 409.615,350.5 c 6.838,-3.883 -3.304,-5.24 -3.688,-7.011 -0.639,-2.95 4.333,-0.483 4.333,-2 0,-0.898 -3.247,-0.253 -2.708,-1 1.078,-1.494 6.495,-0.507 5.416,-2 -0.445,-0.616 -8.109,-3.838 -4.333,-5 1.189,-0.366 3.981,-0.175 4.875,-1 1.356,-1.252 -5.958,-0.846 -5.958,-2 0,-0.5 6.499,-1 6.499,-1.5 0,-3.018 -11.211,1.7 -9.749,-1 0.94,-1.735 10.189,-1.593 9.208,-2.5 -11.229,-10.365 -1.625,7.567 -1.625,-2.999 0,-0.667 -2.852,0.21 -2.167,0 1.247,-0.384 4.721,-0.142 3.792,-1 -0.296,-0.273 -8.666,-0.793 -8.666,-1 0,-2.302 6.73,1.287 9.207,-1 1.828,-1.688 -8.4,0.764 -7.582,-1.5 0.582,-1.613 6.718,0.202 5.416,-1 -1.345,-1.241 -6.998,-1.654 -3.792,-2.5 1.228,-0.324 4.694,0.333 3.792,-0.5 -1.283,-1.184 -6.699,0.684 -5.416,-0.5 1.314,-1.213 3.015,-2.5 4.874,-2.5 0.722,0 2.889,0 2.167,0 -3.473,0 -13.397,-0.066 -10.291,-1.5 4.275,-1.973 8.497,1.729 4.874,-0.5 -1.618,-0.996 7.041,-4.634 7.041,-4 0,1.74 -6.259,0.057 -5.416,-1.5 0.257,-0.474 7.577,-0.144 4.333,-0.999 -4.232,-1.117 -6.07,-2 -0.541,-2 3.276,0 -9.539,-2.195 -8.666,-3 0.825,-0.762 8.821,-1.712 8.666,-2 -0.888,-1.638 -8.057,-2.125 -6.5,-5 0.546,-1.008 7.587,-0.332 3.792,-1.5 -9.682,-2.979 -0.542,-0.82 -0.542,-4 0,-10.476 -7.587,6.512 -3.25,-5.499 4.143,-11.473 3.792,5.881 3.792,-5.5 0,-1.863 -5.958,0.863 -5.958,-1 0,-2.549 10.594,-0.36 8.124,-1.5 -19.972,-9.218 4.152,1.833 -2.708,-4.5 -1.679,-1.55 -9.017,0.216 -7.041,-1 2.741,-1.687 11.222,1.22 9.749,-1.5 -1.329,-2.453 -5.958,0.424 -5.958,-3 0,-1.674 7.231,-0.5 5.416,-0.5 -2.174,0 -8.308,0.614 -6.499,-0.5 1.679,-1.033 5.958,-2.863 5.958,-0.999 0,0.266 -7.815,-0.339 -5.416,-2 1.899,-1.316 9.016,0.216 7.041,-1 -1.707,-1.05 -7.443,0.022 -3.792,-2 0.639,-0.354 2.833,-0.193 2.167,-0.5 -1.658,-0.765 -6.405,0.087 -7.583,-1 -0.296,-0.274 5.099,-1 5.416,-1 1.264,0 -4.921,0.522 -3.791,0 1.841,-0.85 7.413,-0.156 5.958,-1.5 -0.788,-0.727 -7.583,-0.382 -7.583,-1.5 0,-0.799 16.004,-2.613 15.165,-3 -6.017,-2.777 -17.16,-0.579 -15.165,-1.5 20.195,-9.321 -3.052,8.135 1.083,0.5 0.542,-1 3.25,-0.382 3.25,-1.5 0,-2.321 -7.651,-0.248 -7.041,-2.5 0.722,-2.667 12.414,-2.539 11.916,-2.999 -0.898,-0.829 -9.749,-0.319 -9.749,-1.5 0,-2.028 8.695,-1 6.499,-1 -7.604,0 1.73,-2.354 1.625,-2.5 -0.836,-1.158 -5.723,-1.067 -5.958,-1.5 -0.612,-1.13 5.958,-1.552 5.958,-1.5 0,0.514 -5.48,-0.338 -5.958,-1 -0.35,-0.485 13.854,-0.5 12.457,-0.5 -5.248,0 -20.685,0.532 -15.707,-1 2.426,-0.746 5.6,0.466 8.125,0 4.419,-0.816 -3.799,-2.007 -4.333,-2.5 -0.818,-0.754 2.708,-3.067 2.708,-2 0,0.834 -3.611,0 -2.708,0 1.624,0 6.499,0 4.874,0 -5.241,0 -8.074,-3.819 -7.582,-4.5 1.284,-1.777 14.883,0 11.373,0 -3.61,0 -13.385,2.357 -10.832,0 2.848,-2.628 15.177,-0.747 11.916,-1.499 -4.076,-0.941 -12.893,-2.598 -11.916,-3.5 2.515,-2.322 15.232,-0.22 9.208,-3 -1.267,-0.585 -10.833,0.265 -10.833,-1.5 0,-1.46 10.964,-2.694 12.457,-3 5.33,-1.093 -12.044,-0.5 -7.041,-0.5 0.321,0 9.749,0.343 9.749,-1 0,-4.166 -16.731,2.946 -13.54,0 1.482,-1.367 6.457,-0.921 7.583,-3 0.888,-1.639 -7.944,0 -5.958,0 2.528,0 7.583,-2.333 7.583,0 0,2.167 -4.694,0 -7.041,0 -1.625,0 -4.875,1.5 -4.875,0 0,-0.042 10.882,-1.045 11.916,-2 2.936,-2.71 -16.486,0.93 -12.458,0 11.451,-2.642 9.227,0.492 18.957,-3.999 3.879,-1.791 -16.607,1.72 -12.999,-0.5 6.598,-4.061 -4.115,-2.202 -2.708,-3.5 0.606,-0.559 11.438,-1.206 5.416,-2 -0.962,-0.127 -3.247,-0.253 -2.708,-1 1.022,-1.415 5.138,0.513 5.958,-1 0.731,-1.35 -5.606,0.85 -4.875,-0.5 0.22,-0.406 5.447,-1.944 5.417,-2 -2.594,-4.789 -9.969,-1.445 -8.125,-4 0.658,-0.91 6.793,-3.729 5.417,-5 -1.156,-1.067 -6.031,0.568 -4.875,-0.5 1.063,-0.981 4.851,0.065 5.416,-1.499 0.801,-2.22 -7.582,1.839 -7.582,-0.5 0,-2.387 8.868,-1.313 7.041,-3 -9.628,-8.888 -0.542,11.71 -0.542,-2 0,-0.667 -2.812,0.298 -2.167,0 0.735,-0.339 7.718,-2.459 7.583,-2.5 -3.597,-1.107 -15.165,0 -11.374,0 0.463,0 10.832,0.453 10.832,-0.5 0,-1.333 -2.888,0 -4.332,0 -1.625,0 -4.875,-1.5 -4.875,0 0,2.007 8.444,0.397 6.499,-0.5 -1.937,-0.894 -8.437,0.894 -6.499,0 2.82,-1.302 12.266,-1.294 9.207,-2 -2.913,-0.672 -10.877,-1.5 -9.207,-1.5 3.83,0 14.799,0.081 11.374,-1.5 -0.492,-0.227 -9.749,0.148 -9.749,0 0,-2.333 10.11,0 7.582,0 -1.263,0 -2.78,0.7 -3.791,0 -2.907,-2.013 2.708,-1.35 2.708,-2.5 0,-1.212 -5.268,-1.908 -4.874,-3 0.51,-1.414 5.777,-1.333 4.333,-1.999 -0.625,-0.289 -7.041,0.871 -7.041,1.499 0,0.846 7.673,-3.749 7.582,-3.999 -0.63,-1.747 -5.958,1.341 -5.958,-0.5 0,-0.522 5.613,-3.137 5.417,-3.5 -3.213,-5.932 -4.463,3.62 1.624,-2 2.294,-2.117 -11.695,-0.805 -9.749,-3.5 1.046,-1.448 7.205,-0.95 5.417,-1.5 -2.592,-0.797 -9.64,1.099 -8.125,-1 3.466,-4.799 15.071,-3 0,-3 -3.074,0 6.133,-0.5 9.208,-0.5 3.992,0 -3.34,0.375 -4.333,-1 -1.206,-1.669 8.238,0.705 6.499,-0.5 -0.681,-0.471 -9.749,-1.859 -9.749,-2.999 0,-0.461 8.624,-1.36 7.583,-2 -0.29,-0.178 -8.472,-1.383 -3.792,-2 0.431,-0.057 6.5,0.045 6.5,0 0,-0.695 -8.124,-1.116 -8.124,-2 0,-3.76 14.795,0.159 11.915,-2.5 -1.302,-1.202 -3.611,-0.667 -5.416,-1 -8.578,0.168 3.791,-2.311 3.791,-1.5 0,1.833 -5.957,1.833 -5.957,0 0,-0.54 2.954,-0.659 2.708,-1 -1.489,-2.061 -9.481,-0.748 -7.583,-2.5 3.101,-2.862 12.135,-3.398 10.832,-4 -2.542,-1.173 -17.665,-0.638 -4.874,-2.999 0.902,-0.167 3.12,0.26 2.708,-0.5 -0.229,-0.423 -9.196,-2.522 -8.666,-3.5 1.419,-2.619 5.819,-1.764 8.124,-2 0.915,-0.094 2.708,-1.35 2.708,-0.5 0,2.666 -4.457,1.385 -6.499,-0.5 -1.333,-1.23 1.5,-0.354 3.25,-1"
     inkscape:connector-curvature="0"
     style="fill-opacity:0;stroke:#000000;stroke-width:1;stroke-linecap:round" />
  <path
     id="path46"
     d="m 40.5,250.5 620,0"
     inkscape:connector-curvature="0"
     style="fill-opacity:0;stroke:#000000;stroke-width:1;stroke-miterlimit:4;stroke-dasharray:3,3;stroke-dashoffset:0" />
  <text
     id="text48"
     x="19.17"
     y="246.5">
    <tspan
       id="tspan50"
       font-size="10"
       y="250"
       x="8.3400002"
       style="font-size:10px;fill:#000000;font-family:HelveticaNeue-Bold">Now</tspan>
  </text>
  <text
     id="text52"
     x="29.17"
     y="50">
    <tspan
       id="tspan54"
       font-size="10"
       y="50"
       x="13.79"
       style="font-size:10px;fill:#000000;font-family:HelveticaNeue-Bold">Future</tspan>
  </text>
  <path
     id="path56"
     d="m 331.87024,283.9843 c 1.966,-0.032 3.935,-0.562 5.21,-2.765 1.276,-2.203 2.033,-7.17 2.054,-7.84 0.022,-0.669 0.714,-7.365 0.908,-8.229 0.195,-0.864 0.541,-2.181 0.671,-2.591 0.129,-0.411 0.497,-3.283 0.777,-4.406 0.281,-1.123 0.909,-4.299 1.081,-5.335 0.173,-1.037 0.346,-2.095 0.217,-3.737 -0.13,-1.641 -0.93,-2.742 -0.973,-3.239 -0.044,-0.497 0.367,-1.685 0.454,-2.138 0.086,-0.454 0.065,-1.404 -0.087,-2.117 -0.151,-0.713 -0.432,-0.994 -0.713,-1.317 -0.281,-0.324 -0.302,-0.476 -0.713,-0.432 -0.411,0.043 -0.822,0.021 -1.103,0.345 -0.281,0.324 -0.476,0.54 -0.476,0.54 0,0 0.152,-0.497 0.238,-1.231 0.087,-0.734 -0.238,-1.533 -0.519,-1.944 -0.281,-0.41 -0.497,-1.015 -0.908,-1.144 -0.411,-0.13 -0.454,-0.173 -0.757,-0.152 -0.302,0.022 -0.605,0.216 -0.605,0.216 0,0 0.281,-0.561 0.238,-1.123 -0.043,-0.561 -0.303,-0.972 -0.584,-1.231 -0.28,-0.259 -0.626,-0.432 -1.037,-0.454 -0.411,-0.021 -0.8,0.173 -0.973,0.281 -0.173,0.108 -0.389,0.346 -0.389,0.346 0,0 0.432,-0.41 0.432,-0.929 0,-0.518 -0.346,-1.425 -0.605,-1.62 -0.26,-0.194 -1.254,-0.389 -1.535,-0.367 -0.282,0.022 -0.887,0.26 -1.125,0.54 -0.238,0.281 -0.561,0.583 -0.583,0.972 -0.022,0.389 -0.065,1.166 0.022,1.577 0.086,0.41 0.28,1.36 0.28,1.619 0,0.26 0.043,1.361 -0.043,1.707 -0.086,0.345 -0.324,1.274 -0.519,1.317 -0.194,0.043 -0.67,0.195 -0.843,0.087 -0.173,-0.109 -0.908,-0.238 -0.908,-0.238 0,0 0.627,-0.13 0.757,-0.432 0.13,-0.302 0.692,-2.354 0.692,-2.678 0,-0.324 -0.022,-2.397 -0.087,-2.916 -0.065,-0.518 -0.519,-1.62 -0.648,-1.879 -0.13,-0.259 -0.8,-1.058 -1.406,-1.101 -0.605,-0.044 -1.535,-0.022 -2.075,0.388 -0.54,0.411 -1.384,1.707 -1.578,2.139 -0.195,0.432 -0.692,1.857 -0.865,2.484 -0.173,0.625 -0.411,1.425 -0.411,1.814 0,0.388 0,1.101 0.173,1.447 0.173,0.345 0.324,0.561 0.389,0.993 0.065,0.432 0.238,0.778 0.195,1.123 -0.043,0.346 0,0.799 -0.087,1.231 -0.086,0.432 0.044,1.34 -0.043,1.49 -0.086,0.152 -0.389,0.8 -0.432,1.08 -0.044,0.281 0.064,2.592 0.064,2.916 0,0.324 -0.173,2.7 -0.129,3.067 0.043,0.367 -0.087,2.571 0.021,3.434 0.108,0.864 1.449,4.903 1.644,5.897 0.194,0.993 0.519,1.814 0.497,2.44 -0.022,0.627 -0.108,3.996 -0.13,4.471 -0.021,0.475 0.26,4.773 0.325,5.399 0.064,0.627 0.043,2.441 0.086,3.456 0.043,1.015 0.518,3.844 0.821,4.751 0.303,0.908 1.233,2.311 2.141,2.895 0.908,0.583 2.141,1.144 3.502,1.123 z"
     inkscape:connector-curvature="0"
     style="opacity:0.5;fill:#000000" />
  <path
     id="path58"
     d="m 320.963,345.4985 c -1.966,-0.032 -3.935,-0.562 -5.21,-2.765 -1.276,-2.203 -2.033,-7.17 -2.054,-7.84 -0.022,-0.669 -0.714,-7.365 -0.908,-8.229 -0.195,-0.864 -0.541,-2.181 -0.671,-2.591 -0.129,-0.411 -0.497,-3.283 -0.777,-4.406 -0.281,-1.123 -0.909,-4.299 -1.081,-5.335 -0.173,-1.037 -0.346,-2.095 -0.217,-3.737 0.13,-1.641 0.93,-2.742 0.973,-3.239 0.044,-0.497 -0.367,-1.685 -0.454,-2.138 -0.086,-0.454 -0.065,-1.404 0.087,-2.117 0.151,-0.713 0.432,-0.994 0.713,-1.317 0.281,-0.324 0.302,-0.476 0.713,-0.432 0.411,0.043 0.822,0.021 1.103,0.345 0.281,0.324 0.476,0.54 0.476,0.54 0,0 -0.152,-0.497 -0.238,-1.231 -0.087,-0.734 0.238,-1.533 0.519,-1.944 0.281,-0.41 0.497,-1.015 0.908,-1.144 0.411,-0.13 0.454,-0.173 0.757,-0.152 0.302,0.022 0.605,0.216 0.605,0.216 0,0 -0.281,-0.561 -0.238,-1.123 0.043,-0.561 0.303,-0.972 0.584,-1.231 0.28,-0.259 0.626,-0.432 1.037,-0.454 0.411,-0.021 0.8,0.173 0.973,0.281 0.173,0.108 0.389,0.346 0.389,0.346 0,0 -0.432,-0.41 -0.432,-0.929 0,-0.518 0.346,-1.425 0.605,-1.62 0.26,-0.194 1.254,-0.389 1.535,-0.367 0.282,0.022 0.887,0.26 1.125,0.54 0.238,0.281 0.561,0.583 0.583,0.972 0.022,0.389 0.065,1.166 -0.022,1.577 -0.086,0.41 -0.28,1.36 -0.28,1.619 0,0.26 -0.043,1.361 0.043,1.707 0.086,0.345 0.324,1.274 0.519,1.317 0.194,0.043 0.67,0.195 0.843,0.087 0.173,-0.109 0.908,-0.238 0.908,-0.238 0,0 -0.627,-0.13 -0.757,-0.432 -0.13,-0.302 -0.692,-2.354 -0.692,-2.678 0,-0.324 0.022,-2.397 0.087,-2.916 0.065,-0.518 0.519,-1.62 0.648,-1.879 0.13,-0.259 0.8,-1.058 1.406,-1.101 0.605,-0.044 1.535,-0.022 2.075,0.388 0.54,0.411 1.384,1.707 1.578,2.139 0.195,0.432 0.692,1.857 0.865,2.484 0.173,0.625 0.411,1.425 0.411,1.814 0,0.388 0,1.101 -0.173,1.447 -0.173,0.345 -0.324,0.561 -0.389,0.993 -0.065,0.432 -0.238,0.778 -0.195,1.123 0.043,0.346 0,0.799 0.087,1.231 0.086,0.432 -0.044,1.34 0.043,1.49 0.086,0.152 0.389,0.8 0.432,1.08 0.044,0.281 -0.064,2.592 -0.064,2.916 0,0.324 0.173,2.7 0.129,3.067 -0.043,0.367 0.087,2.571 -0.021,3.434 -0.108,0.864 -1.449,4.903 -1.644,5.897 -0.194,0.993 -0.519,1.814 -0.497,2.44 0.022,0.627 0.108,3.996 0.13,4.471 0.021,0.475 -0.26,4.773 -0.325,5.399 -0.064,0.627 -0.043,2.441 -0.086,3.456 -0.043,1.015 -0.518,3.844 -0.821,4.751 -0.303,0.908 -1.233,2.311 -2.141,2.895 -0.908,0.583 -2.141,1.144 -3.502,1.123 z"
     inkscape:connector-curvature="0"
     style="fill:#000000" />
  <path
     id="path60"
     d="m 400.5,100.5 20,0"
     inkscape:connector-curvature="0"
     style="fill-opacity:0;stroke:#000000;stroke-width:1" />
  <text
     id="text62"
     x="458.51999"
     y="96.5">
    <tspan
       id="tspan64"
       font-size="10"
       y="100"
       x="430"
       style="font-size:10px;fill:#000000;font-family:HelveticaNeue-Bold">End of song</tspan>
  </text>
  <text
     id="text66"
     x="410"
     y="32.5">
    <tspan
       id="tspan68"
       font-size="10"
       y="30"
       x="388.04999"
       style="font-size:10px;fill:#000000;font-family:HelveticaNeue-Bold">Currently</tspan>
    <tspan
       id="tspan70"
       font-size="10"
       y="42"
       x="381.11499"
       style="font-size:10px;fill:#000000;font-family:HelveticaNeue-Bold">played song</tspan>
  </text>
  <text
     id="text72"
     x="19.17"
     y="344.78299">
    <tspan
       id="tspan74"
       font-size="10"
       y="348.28299"
       x="8.5200005"
       style="font-size:10px;fill:#000000;font-family:HelveticaNeue-Bold">Past</tspan>
  </text>
  <text
     id="text88"
     x="110"
     y="12.5">
    <tspan
       id="tspan90"
       font-size="10"
       y="10"
       x="89.735001"
       style="font-size:10px;fill:#000000;font-family:HelveticaNeue-Bold">Possible</tspan>
    <tspan
       id="tspan92"
       font-size="10"
       y="22"
       x="82.584999"
       style="font-size:10px;fill:#000000;font-family:HelveticaNeue-Bold">Next Songs</tspan>
  </text>
  <path
     id="path94"
     d="m 110.5,30.5 0,10"
     inkscape:connector-curvature="0"
     style="fill-opacity:0;stroke:#000000;stroke-width:1" />
  <path
     id="path96"
     d="m 150.5,20.5 110,20"
     inkscape:connector-curvature="0"
     style="fill-opacity:0;stroke:#000000;stroke-width:1" />
  <path
     id="path98"
     d="m 150.5,10.5 c 0,0 411.677,-10.932 410,30"
     inkscape:connector-curvature="0"
     style="fill-opacity:0;stroke:#000000;stroke-width:1" />
  <path
     id="path100"
     d="m 199.037,334.054 c 1.966,-0.032 3.935,-0.562 5.21,-2.765 1.276,-2.203 2.033,-7.17 2.054,-7.84 0.022,-0.669 0.714,-7.365 0.908,-8.229 0.195,-0.864 0.541,-2.181 0.671,-2.591 0.129,-0.411 0.497,-3.283 0.777,-4.406 0.281,-1.123 0.909,-4.299 1.081,-5.335 0.173,-1.037 0.346,-2.095 0.217,-3.737 -0.13,-1.641 -0.93,-2.742 -0.973,-3.239 -0.044,-0.497 0.367,-1.685 0.454,-2.138 0.086,-0.454 0.065,-1.404 -0.087,-2.117 -0.151,-0.713 -0.432,-0.994 -0.713,-1.317 -0.281,-0.324 -0.302,-0.476 -0.713,-0.432 -0.411,0.043 -0.822,0.021 -1.103,0.345 -0.281,0.324 -0.476,0.54 -0.476,0.54 0,0 0.152,-0.497 0.238,-1.231 0.087,-0.734 -0.238,-1.533 -0.519,-1.944 -0.281,-0.41 -0.497,-1.015 -0.908,-1.144 -0.411,-0.13 -0.454,-0.173 -0.757,-0.152 -0.302,0.022 -0.605,0.216 -0.605,0.216 0,0 0.281,-0.561 0.238,-1.123 -0.043,-0.561 -0.303,-0.972 -0.584,-1.231 -0.28,-0.259 -0.626,-0.432 -1.037,-0.454 -0.411,-0.021 -0.8,0.173 -0.973,0.281 -0.173,0.108 -0.389,0.346 -0.389,0.346 0,0 0.432,-0.41 0.432,-0.929 0,-0.518 -0.346,-1.425 -0.605,-1.62 -0.26,-0.194 -1.254,-0.389 -1.535,-0.367 -0.282,0.022 -0.887,0.26 -1.125,0.54 -0.238,0.281 -0.561,0.583 -0.583,0.972 -0.022,0.389 -0.065,1.166 0.022,1.577 0.086,0.41 0.28,1.36 0.28,1.619 0,0.26 0.043,1.361 -0.043,1.707 -0.086,0.345 -0.324,1.274 -0.519,1.317 -0.194,0.043 -0.67,0.195 -0.843,0.087 -0.173,-0.109 -0.908,-0.238 -0.908,-0.238 0,0 0.627,-0.13 0.757,-0.432 0.13,-0.302 0.692,-2.354 0.692,-2.678 0,-0.324 -0.022,-2.397 -0.087,-2.916 -0.065,-0.518 -0.519,-1.62 -0.648,-1.879 -0.13,-0.259 -0.8,-1.058 -1.406,-1.101 -0.605,-0.044 -1.535,-0.022 -2.075,0.388 -0.54,0.411 -1.384,1.707 -1.578,2.139 -0.195,0.432 -0.692,1.857 -0.865,2.484 -0.173,0.625 -0.411,1.425 -0.411,1.814 0,0.388 0,1.101 0.173,1.447 0.173,0.345 0.324,0.561 0.389,0.993 0.065,0.432 0.238,0.778 0.195,1.123 -0.043,0.346 0,0.799 -0.087,1.231 -0.086,0.432 0.044,1.34 -0.043,1.49 -0.086,0.152 -0.389,0.8 -0.432,1.08 -0.044,0.281 0.064,2.592 0.064,2.916 0,0.324 -0.173,2.7 -0.129,3.067 0.043,0.367 -0.087,2.571 0.021,3.434 0.108,0.864 1.449,4.903 1.644,5.897 0.194,0.993 0.519,1.814 0.497,2.44 -0.022,0.627 -0.108,3.996 -0.13,4.471 -0.021,0.475 0.26,4.773 0.324,5.399 0.065,0.627 0.044,2.441 0.087,3.456 0.043,1.015 0.518,3.844 0.821,4.751 0.303,0.908 1.233,2.311 2.141,2.895 0.908,0.583 2.141,1.144 3.502,1.123 z"
     inkscape:connector-curvature="0"
     style="fill:#000000;fill-opacity:0.5" />
  <path
     id="path102"
     d="m 170.963,334.054 c -1.966,-0.032 -3.935,-0.562 -5.21,-2.765 -1.276,-2.203 -2.033,-7.17 -2.054,-7.84 -0.022,-0.669 -0.714,-7.365 -0.908,-8.229 -0.195,-0.864 -0.541,-2.181 -0.671,-2.591 -0.129,-0.411 -0.497,-3.283 -0.777,-4.406 -0.281,-1.123 -0.909,-4.299 -1.081,-5.335 -0.173,-1.037 -0.346,-2.095 -0.217,-3.737 0.13,-1.641 0.93,-2.742 0.973,-3.239 0.044,-0.497 -0.367,-1.685 -0.454,-2.138 -0.086,-0.454 -0.065,-1.404 0.087,-2.117 0.151,-0.713 0.432,-0.994 0.713,-1.317 0.281,-0.324 0.302,-0.476 0.713,-0.432 0.411,0.043 0.822,0.021 1.103,0.345 0.281,0.324 0.476,0.54 0.476,0.54 0,0 -0.152,-0.497 -0.238,-1.231 -0.087,-0.734 0.238,-1.533 0.519,-1.944 0.281,-0.41 0.497,-1.015 0.908,-1.144 0.411,-0.13 0.454,-0.173 0.757,-0.152 0.302,0.022 0.605,0.216 0.605,0.216 0,0 -0.281,-0.561 -0.238,-1.123 0.043,-0.561 0.303,-0.972 0.584,-1.231 0.28,-0.259 0.626,-0.432 1.037,-0.454 0.411,-0.021 0.8,0.173 0.973,0.281 0.173,0.108 0.389,0.346 0.389,0.346 0,0 -0.432,-0.41 -0.432,-0.929 0,-0.518 0.346,-1.425 0.605,-1.62 0.26,-0.194 1.254,-0.389 1.535,-0.367 0.282,0.022 0.887,0.26 1.125,0.54 0.238,0.281 0.561,0.583 0.583,0.972 0.022,0.389 0.065,1.166 -0.022,1.577 -0.086,0.41 -0.28,1.36 -0.28,1.619 0,0.26 -0.043,1.361 0.043,1.707 0.086,0.345 0.324,1.274 0.519,1.317 0.194,0.043 0.67,0.195 0.843,0.087 0.173,-0.109 0.908,-0.238 0.908,-0.238 0,0 -0.627,-0.13 -0.757,-0.432 -0.13,-0.302 -0.692,-2.354 -0.692,-2.678 0,-0.324 0.022,-2.397 0.087,-2.916 0.065,-0.518 0.519,-1.62 0.648,-1.879 0.13,-0.259 0.8,-1.058 1.406,-1.101 0.605,-0.044 1.535,-0.022 2.075,0.388 0.54,0.411 1.384,1.707 1.578,2.139 0.195,0.432 0.692,1.857 0.865,2.484 0.173,0.625 0.411,1.425 0.411,1.814 0,0.388 0,1.101 -0.173,1.447 -0.173,0.345 -0.324,0.561 -0.389,0.993 -0.065,0.432 -0.238,0.778 -0.195,1.123 0.043,0.346 0,0.799 0.087,1.231 0.086,0.432 -0.044,1.34 0.043,1.49 0.086,0.152 0.389,0.8 0.432,1.08 0.044,0.281 -0.064,2.592 -0.064,2.916 0,0.324 0.173,2.7 0.129,3.067 -0.043,0.367 0.087,2.571 -0.021,3.434 -0.108,0.864 -1.449,4.903 -1.644,5.897 -0.194,0.993 -0.519,1.814 -0.497,2.44 0.022,0.627 0.108,3.996 0.13,4.471 0.021,0.475 -0.26,4.773 -0.324,5.399 -0.065,0.627 -0.044,2.441 -0.087,3.456 -0.043,1.015 -0.518,3.844 -0.821,4.751 -0.303,0.908 -1.233,2.311 -2.141,2.895 -0.908,0.583 -2.141,1.144 -3.502,1.123 z"
     inkscape:connector-curvature="0"
     style="fill:#000000;fill-opacity:0.5" />
  <path
     id="path104"
     d="m 499.037,334.054 c 1.966,-0.032 3.935,-0.562 5.21,-2.765 1.276,-2.203 2.033,-7.17 2.054,-7.84 0.022,-0.669 0.714,-7.365 0.908,-8.229 0.195,-0.864 0.541,-2.181 0.671,-2.591 0.129,-0.411 0.497,-3.283 0.777,-4.406 0.281,-1.123 0.909,-4.299 1.081,-5.335 0.173,-1.037 0.346,-2.095 0.217,-3.737 -0.13,-1.641 -0.93,-2.742 -0.973,-3.239 -0.044,-0.497 0.367,-1.685 0.454,-2.138 0.086,-0.454 0.065,-1.404 -0.087,-2.117 -0.151,-0.713 -0.432,-0.994 -0.713,-1.317 -0.281,-0.324 -0.302,-0.476 -0.713,-0.432 -0.411,0.043 -0.822,0.021 -1.103,0.345 -0.281,0.324 -0.476,0.54 -0.476,0.54 0,0 0.152,-0.497 0.238,-1.231 0.087,-0.734 -0.238,-1.533 -0.519,-1.944 -0.281,-0.41 -0.497,-1.015 -0.908,-1.144 -0.411,-0.13 -0.454,-0.173 -0.757,-0.152 -0.302,0.022 -0.605,0.216 -0.605,0.216 0,0 0.281,-0.561 0.238,-1.123 -0.043,-0.561 -0.303,-0.972 -0.584,-1.231 -0.28,-0.259 -0.626,-0.432 -1.037,-0.454 -0.411,-0.021 -0.8,0.173 -0.973,0.281 -0.173,0.108 -0.389,0.346 -0.389,0.346 0,0 0.432,-0.41 0.432,-0.929 0,-0.518 -0.346,-1.425 -0.605,-1.62 -0.26,-0.194 -1.254,-0.389 -1.535,-0.367 -0.282,0.022 -0.887,0.26 -1.125,0.54 -0.238,0.281 -0.561,0.583 -0.583,0.972 -0.022,0.389 -0.065,1.166 0.022,1.577 0.086,0.41 0.28,1.36 0.28,1.619 0,0.26 0.043,1.361 -0.043,1.707 -0.086,0.345 -0.324,1.274 -0.519,1.317 -0.194,0.043 -0.67,0.195 -0.843,0.087 -0.173,-0.109 -0.908,-0.238 -0.908,-0.238 0,0 0.627,-0.13 0.757,-0.432 0.13,-0.302 0.692,-2.354 0.692,-2.678 0,-0.324 -0.022,-2.397 -0.087,-2.916 -0.065,-0.518 -0.519,-1.62 -0.648,-1.879 -0.13,-0.259 -0.8,-1.058 -1.406,-1.101 -0.605,-0.044 -1.535,-0.022 -2.075,0.388 -0.54,0.411 -1.384,1.707 -1.578,2.139 -0.195,0.432 -0.692,1.857 -0.865,2.484 -0.173,0.625 -0.411,1.425 -0.411,1.814 0,0.388 0,1.101 0.173,1.447 0.173,0.345 0.324,0.561 0.389,0.993 0.065,0.432 0.238,0.778 0.195,1.123 -0.043,0.346 0,0.799 -0.087,1.231 -0.086,0.432 0.044,1.34 -0.043,1.49 -0.086,0.152 -0.389,0.8 -0.432,1.08 -0.044,0.281 0.064,2.592 0.064,2.916 0,0.324 -0.173,2.7 -0.129,3.067 0.043,0.367 -0.087,2.571 0.021,3.434 0.108,0.864 1.449,4.903 1.644,5.897 0.194,0.993 0.519,1.814 0.497,2.44 -0.022,0.627 -0.108,3.996 -0.13,4.471 -0.021,0.475 0.26,4.773 0.325,5.399 0.064,0.627 0.043,2.441 0.086,3.456 0.043,1.015 0.518,3.844 0.821,4.751 0.303,0.908 1.233,2.311 2.141,2.895 0.908,0.583 2.141,1.144 3.502,1.123 z"
     inkscape:connector-curvature="0"
     style="fill:#000000;fill-opacity:0.5" />
  <path
     id="path106"
     d="m 470.963,334.054 c -1.966,-0.032 -3.935,-0.562 -5.21,-2.765 -1.276,-2.203 -2.033,-7.17 -2.054,-7.84 -0.022,-0.669 -0.714,-7.365 -0.908,-8.229 -0.195,-0.864 -0.541,-2.181 -0.671,-2.591 -0.129,-0.411 -0.497,-3.283 -0.777,-4.406 -0.281,-1.123 -0.909,-4.299 -1.081,-5.335 -0.173,-1.037 -0.346,-2.095 -0.217,-3.737 0.13,-1.641 0.93,-2.742 0.973,-3.239 0.044,-0.497 -0.367,-1.685 -0.454,-2.138 -0.086,-0.454 -0.065,-1.404 0.087,-2.117 0.151,-0.713 0.432,-0.994 0.713,-1.317 0.281,-0.324 0.302,-0.476 0.713,-0.432 0.411,0.043 0.822,0.021 1.103,0.345 0.281,0.324 0.476,0.54 0.476,0.54 0,0 -0.152,-0.497 -0.238,-1.231 -0.087,-0.734 0.238,-1.533 0.519,-1.944 0.281,-0.41 0.497,-1.015 0.908,-1.144 0.411,-0.13 0.454,-0.173 0.757,-0.152 0.302,0.022 0.605,0.216 0.605,0.216 0,0 -0.281,-0.561 -0.238,-1.123 0.043,-0.561 0.303,-0.972 0.584,-1.231 0.28,-0.259 0.626,-0.432 1.037,-0.454 0.411,-0.021 0.8,0.173 0.973,0.281 0.173,0.108 0.389,0.346 0.389,0.346 0,0 -0.432,-0.41 -0.432,-0.929 0,-0.518 0.346,-1.425 0.605,-1.62 0.26,-0.194 1.254,-0.389 1.535,-0.367 0.282,0.022 0.887,0.26 1.125,0.54 0.238,0.281 0.561,0.583 0.583,0.972 0.022,0.389 0.065,1.166 -0.022,1.577 -0.086,0.41 -0.28,1.36 -0.28,1.619 0,0.26 -0.043,1.361 0.043,1.707 0.086,0.345 0.324,1.274 0.519,1.317 0.194,0.043 0.67,0.195 0.843,0.087 0.173,-0.109 0.908,-0.238 0.908,-0.238 0,0 -0.627,-0.13 -0.757,-0.432 -0.13,-0.302 -0.692,-2.354 -0.692,-2.678 0,-0.324 0.022,-2.397 0.087,-2.916 0.065,-0.518 0.519,-1.62 0.648,-1.879 0.13,-0.259 0.8,-1.058 1.406,-1.101 0.605,-0.044 1.535,-0.022 2.075,0.388 0.54,0.411 1.384,1.707 1.578,2.139 0.195,0.432 0.692,1.857 0.865,2.484 0.173,0.625 0.411,1.425 0.411,1.814 0,0.388 0,1.101 -0.173,1.447 -0.173,0.345 -0.324,0.561 -0.389,0.993 -0.065,0.432 -0.238,0.778 -0.195,1.123 0.043,0.346 0,0.799 0.087,1.231 0.086,0.432 -0.044,1.34 0.043,1.49 0.086,0.152 0.389,0.8 0.432,1.08 0.044,0.281 -0.064,2.592 -0.064,2.916 0,0.324 0.173,2.7 0.129,3.067 -0.043,0.367 0.087,2.571 -0.021,3.434 -0.108,0.864 -1.449,4.903 -1.644,5.897 -0.194,0.993 -0.519,1.814 -0.497,2.44 0.022,0.627 0.108,3.996 0.13,4.471 0.021,0.475 -0.26,4.773 -0.325,5.399 -0.064,0.627 -0.043,2.441 -0.086,3.456 -0.043,1.015 -0.518,3.844 -0.821,4.751 -0.303,0.908 -1.233,2.311 -2.141,2.895 -0.908,0.583 -2.141,1.144 -3.502,1.123 z"
     inkscape:connector-curvature="0"
     style="fill:#000000;fill-opacity:0.5" />
  <text
     id="text108"
     x="330"
     y="372.5">
    <tspan
       id="tspan110"
       font-size="10"
       y="370"
       x="304.06"
       style="font-size:10px;fill:#000000;font-family:HelveticaNeue-Bold">Current DJ</tspan>
  </text>
  <text
     id="text112"
     x="180.265"
     y="372.5">
    <tspan
       id="tspan114"
       font-size="10"
       y="370"
       x="160"
       style="font-size:10px;fill:#000000;font-family:HelveticaNeue-Bold">Possible</tspan>
    <tspan
       id="tspan116"
       font-size="10"
       y="382"
       x="162.11"
       style="font-size:10px;fill:#000000;font-family:HelveticaNeue-Bold">next DJ</tspan>
  </text>
  <text
     id="text118"
     x="480.26501"
     y="372.5">
    <tspan
       id="tspan120"
       font-size="10"
       y="370"
       x="460"
       style="font-size:10px;fill:#000000;font-family:HelveticaNeue-Bold">Possible</tspan>
    <tspan
       id="tspan122"
       font-size="10"
       y="382"
       x="462.10999"
       style="font-size:10px;fill:#000000;font-family:HelveticaNeue-Bold">next DJ</tspan>
  </text>
  <path
     id="path124"
     d="m 381.21528,456.45923 c -5.523,0 -10,-4.477 -10,-10 0,-5.523 4.477,-10 10,-10 5.523,0 10,4.477 10,10 0,5.523 -4.477,10 -10,10 z"
     inkscape:connector-curvature="0"
     style="fill-opacity:0;stroke:#000000;stroke-width:1" />
  <path
     id="path126"
     d="m 304.80563,468.61902 c -5.523,0 -10,-4.477 -10,-10 0,-5.523 4.477,-10 10,-10 5.523,0 10,4.477 10,10 0,5.523 -4.477,10 -10,10 z"
     inkscape:connector-curvature="0"
     style="fill-opacity:0;stroke:#000000;stroke-width:1" />
  <path
     id="path128"
     d="m 299.30563,453.11902 0,10 10,-5 -10,-5 z"
     inkscape:connector-curvature="0"
     style="fill:#000000" />
  <path
     style="fill:#000000"
     inkscape:connector-curvature="0"
     d="m 375.71528,440.95923 3.827,0 0,10 -3.827,0 z"
     id="path132" />
  <path
     style="fill:#000000"
     inkscape:connector-curvature="0"
     d="m 382.38228,440.95923 3.333,0 0,10 -3.333,0 z"
     id="path134" />
  <path
     id="path160"
     d="m 381.21528,516.45923 c -5.523,0 -10,-4.477 -10,-10 0,-5.523 4.477,-10 10,-10 5.523,0 10,4.477 10,10 0,5.523 -4.477,10 -10,10 z"
     inkscape:connector-curvature="0"
     style="fill-opacity:0;stroke:#000000;stroke-width:1" />
  <path
     id="path162"
     d="m 375.71528,508.45923 2.5,2.5 2.5,-2.5 2.87,2.5 2.13,-2.5 -2.5,-2.5 2.5,-2.5 -2.5,-2.5 -2.5,2.5 -2.5,-2.5 -2.5,2.5 2.5,2.5 -2.5,2.5 z"
     inkscape:connector-curvature="0"
     style="fill:#000000" />
  <defs
     id="defs164" />
  <path
     style="fill:#000000"
     inkscape:connector-curvature="0"
     d="m 341.88419,346.21378 c 1.966,-0.032 3.935,-0.562 5.21,-2.765 1.276,-2.203 2.033,-7.17 2.054,-7.84 0.022,-0.669 0.714,-7.365 0.908,-8.229 0.195,-0.864 0.541,-2.181 0.671,-2.591 0.129,-0.411 0.497,-3.283 0.777,-4.406 0.281,-1.123 0.909,-4.299 1.081,-5.335 0.173,-1.037 0.346,-2.095 0.217,-3.737 -0.13,-1.641 -0.93,-2.742 -0.973,-3.239 -0.044,-0.497 0.367,-1.685 0.454,-2.138 0.086,-0.454 0.065,-1.404 -0.087,-2.117 -0.151,-0.713 -0.432,-0.994 -0.713,-1.317 -0.281,-0.324 -0.302,-0.476 -0.713,-0.432 -0.411,0.043 -0.822,0.021 -1.103,0.345 -0.281,0.324 -0.476,0.54 -0.476,0.54 0,0 0.152,-0.497 0.238,-1.231 0.087,-0.734 -0.238,-1.533 -0.519,-1.944 -0.281,-0.41 -0.497,-1.015 -0.908,-1.144 -0.411,-0.13 -0.454,-0.173 -0.757,-0.152 -0.302,0.022 -0.605,0.216 -0.605,0.216 0,0 0.281,-0.561 0.238,-1.123 -0.043,-0.561 -0.303,-0.972 -0.584,-1.231 -0.28,-0.259 -0.626,-0.432 -1.037,-0.454 -0.411,-0.021 -0.8,0.173 -0.973,0.281 -0.173,0.108 -0.389,0.346 -0.389,0.346 0,0 0.432,-0.41 0.432,-0.929 0,-0.518 -0.346,-1.425 -0.605,-1.62 -0.26,-0.194 -1.254,-0.389 -1.535,-0.367 -0.282,0.022 -0.887,0.26 -1.125,0.54 -0.238,0.281 -0.561,0.583 -0.583,0.972 -0.022,0.389 -0.065,1.166 0.022,1.577 0.086,0.41 0.28,1.36 0.28,1.619 0,0.26 0.043,1.361 -0.043,1.707 -0.086,0.345 -0.324,1.274 -0.519,1.317 -0.194,0.043 -0.67,0.195 -0.843,0.087 -0.173,-0.109 -0.908,-0.238 -0.908,-0.238 0,0 0.627,-0.13 0.757,-0.432 0.13,-0.302 0.692,-2.354 0.692,-2.678 0,-0.324 -0.022,-2.397 -0.087,-2.916 -0.065,-0.518 -0.519,-1.62 -0.648,-1.879 -0.13,-0.259 -0.8,-1.058 -1.406,-1.101 -0.605,-0.044 -1.535,-0.022 -2.075,0.388 -0.54,0.411 -1.384,1.707 -1.578,2.139 -0.195,0.432 -0.692,1.857 -0.865,2.484 -0.173,0.625 -0.411,1.425 -0.411,1.814 0,0.388 0,1.101 0.173,1.447 0.173,0.345 0.324,0.561 0.389,0.993 0.065,0.432 0.238,0.778 0.195,1.123 -0.043,0.346 0,0.799 -0.087,1.231 -0.086,0.432 0.044,1.34 -0.043,1.49 -0.086,0.152 -0.389,0.8 -0.432,1.08 -0.044,0.281 0.064,2.592 0.064,2.916 0,0.324 -0.173,2.7 -0.129,3.067 0.043,0.367 -0.087,2.571 0.021,3.434 0.108,0.864 1.449,4.903 1.644,5.897 0.194,0.993 0.519,1.814 0.497,2.44 -0.022,0.627 -0.108,3.996 -0.13,4.471 -0.021,0.475 0.26,4.773 0.325,5.399 0.064,0.627 0.043,2.441 0.086,3.456 0.043,1.015 0.518,3.844 0.821,4.751 0.303,0.908 1.233,2.311 2.141,2.895 0.908,0.583 2.141,1.144 3.502,1.123 z"
     id="path4165" />
  <path
     style="fill:none;stroke:#000000;stroke-width:1px;stroke-linecap:butt;stroke-linejoin:miter;stroke-opacity:1"
     d="m 297.55707,237.63112 c 20.50474,-17.16675 41.72475,-17.16675 61.51421,0"
     id="path4167"
     inkscape:connector-curvature="0"
     sodipodi:nodetypes="cc" />
  <path
     style="fill:none;stroke:#000000;stroke-width:1px;stroke-linecap:butt;stroke-linejoin:miter;stroke-opacity:1"
     d="m 327.59889,218.31852 0,9.29866"
     id="path4169"
     inkscape:connector-curvature="0" />
  <text
     xml:space="preserve"
     style="font-size:16px;font-style:normal;font-variant:normal;font-weight:normal;font-stretch:normal;line-height:125%;letter-spacing:0px;word-spacing:0px;fill:#000000;fill-opacity:1;stroke:none;font-family:Sans;-inkscape-font-specification:Helvetica"
     x="302.56403"
     y="214.74211"
     id="text4171"
     sodipodi:linespacing="125%"><tspan
       sodipodi:role="line"
       id="tspan4173"
       x="302.56403"
       y="214.74211"
       style="font-size:12px">crossfade</tspan></text>
  <path
     style="fill:#000000"
     inkscape:connector-curvature="0"
     d="m 408.68433,79.831885 3.53554,0 0,-3.53553 3.79716,-0.26163 -0.26163,-3.27391 -3.53553,0 0,-3.53553 -3.53554,0 0,3.53553 -3.53553,0 0,3.53554 3.53553,0 0,3.53553 z"
     id="path3044" />
</svg>
